<svg width="199" height="199" viewBox="0 0 199 199" fill="none" xmlns="http://www.w3.org/2000/svg">
<path d="M36.4126 177.163L35.2042 172.413C33.0614 171.508 30.8691 170.724 28.6378 170.065L28.4852 172.272L27.8666 169.841C25.0994 169.052 23.2167 168.706 23.2167 168.706C23.2167 168.706 25.7595 178.342 31.0938 185.708L37.3086 186.796L32.4804 187.49C33.1514 188.295 33.8724 189.056 34.6393 189.771C42.3981 196.947 51.0402 200.24 53.9417 197.124C56.8433 194.008 52.9055 185.667 45.1465 178.491C42.7419 176.266 39.7196 174.481 36.6948 173.075L36.4126 177.163Z" fill="#0FAA48"/>
<path d="M47.906 172.004L49.3352 167.316C47.9704 165.437 46.5003 163.637 44.932 161.924L43.6565 163.735L44.3884 161.334C42.4279 159.235 40.9962 157.969 40.9962 157.969C40.9962 157.969 38.1749 167.527 38.9189 176.581L43.6747 180.712L39.1809 178.819C39.3382 179.854 39.5605 180.877 39.8467 181.884C42.766 192.024 48.456 199.294 52.5557 198.122C56.6553 196.95 57.6122 187.78 54.6927 177.64C53.7878 174.496 52.127 171.411 50.2669 168.651L47.906 172.004Z" fill="#0FAA48"/>
<path d="M148.978 47.1231H147.884V17.2756C147.884 12.6939 146.058 8.29996 142.807 5.06019C139.556 1.82042 135.146 0.000219129 130.548 0H67.0859C62.488 0 58.0784 1.8201 54.8272 5.0599C51.576 8.2997 49.7495 12.6938 49.7495 17.2756V181.025C49.7495 183.294 50.1979 185.54 51.0691 187.636C51.9404 189.732 53.2174 191.636 54.8272 193.241C56.437 194.845 58.3482 196.117 60.4516 196.985C62.5549 197.854 64.8093 198.3 67.0859 198.3H130.548C135.146 198.3 139.556 196.48 142.807 193.241C146.058 190.001 147.885 185.607 147.885 181.025V68.3691H148.978L148.978 47.1231Z" fill="#303030"/>
<path d="M131.247 4.49295H122.964C123.345 5.42368 123.49 6.43346 123.387 7.43336C123.284 8.43325 122.936 9.39257 122.373 10.2268C121.811 11.061 121.051 11.7445 120.161 12.2172C119.27 12.6898 118.277 12.937 117.269 12.937H80.912C79.9033 12.937 78.9101 12.6898 78.0198 12.2172C77.1295 11.7446 76.3696 11.061 75.8069 10.2267C75.2442 9.39245 74.8961 8.43308 74.7932 7.43314C74.6903 6.4332 74.8357 5.42339 75.2168 4.49268H67.4801C64.0464 4.49268 60.7533 5.85193 58.3253 8.27141C55.8972 10.6909 54.5332 13.9724 54.5332 17.3941V180.906C54.5332 184.327 55.8972 187.609 58.3253 190.028C60.7533 192.448 64.0464 193.807 67.4801 193.807H131.247C134.681 193.807 137.974 192.448 140.402 190.028C142.83 187.609 144.194 184.327 144.194 180.906V17.3938C144.194 13.9722 142.83 10.6908 140.402 8.27141C137.974 5.85199 134.681 4.49275 131.247 4.49268L131.247 4.49295Z" fill="white"/>
<path d="M91.2379 69.6272C91.2378 68.4841 91.5398 67.3611 92.1137 66.3713C92.6875 65.3814 93.5129 64.5597 94.5068 63.9888C93.5136 63.4174 92.387 63.1165 91.2402 63.1165C90.0934 63.1164 88.9668 63.4172 87.9736 63.9885C86.9804 64.5599 86.1556 65.3817 85.5822 66.3714C85.0088 67.3611 84.7069 68.4837 84.7069 69.6265C84.7069 70.7693 85.0088 71.8919 85.5822 72.8816C86.1556 73.8713 86.9804 74.6931 87.9736 75.2645C88.9668 75.8358 90.0934 76.1366 91.2402 76.1365C92.387 76.1365 93.5136 75.8356 94.5068 75.2642C93.5132 74.6934 92.6881 73.8718 92.1144 72.8823C91.5408 71.8927 91.2389 70.77 91.239 69.6272H91.2379Z" fill="#282828"/>
<path d="M99.4505 69.6272C99.4503 68.4841 99.7524 67.3611 100.326 66.3712C100.9 65.3814 101.725 64.5597 102.719 63.9888C101.726 63.4174 100.6 63.1165 99.4528 63.1165C98.306 63.1164 97.1794 63.4172 96.1862 63.9885C95.193 64.5599 94.3682 65.3817 93.7948 66.3714C93.2214 67.3611 92.9195 68.4837 92.9195 69.6265C92.9195 70.7693 93.2214 71.8919 93.7948 72.8816C94.3682 73.8713 95.193 74.6931 96.1862 75.2645C97.1794 75.8358 98.306 76.1366 99.4528 76.1365C100.6 76.1365 101.726 75.8356 102.719 75.2642C101.726 74.6934 100.901 73.8718 100.327 72.8823C99.7534 71.8927 99.4514 70.77 99.4516 69.6272H99.4505Z" fill="#282828"/>
<path d="M107.477 76.1373C111.085 76.1373 114.01 73.2226 114.01 69.6272C114.01 66.0318 111.085 63.1172 107.477 63.1172C103.869 63.1172 100.944 66.0318 100.944 69.6272C100.944 73.2226 103.869 76.1373 107.477 76.1373Z" fill="#1AD05D"/>
<path d="M118.395 89.9609H80.3191C79.9567 89.9605 79.6091 89.8168 79.3528 89.5613C79.0965 89.3059 78.9523 88.9596 78.9518 88.5984V50.6563C78.9526 50.2953 79.0969 49.9493 79.3532 49.6941C79.6095 49.4389 79.9568 49.2954 80.3191 49.2949H118.395C118.758 49.2954 119.105 49.439 119.362 49.6945C119.618 49.9499 119.762 50.2962 119.763 50.6574V88.597C119.762 88.9582 119.618 89.3045 119.362 89.56C119.105 89.8154 118.758 89.9591 118.395 89.9595V89.9609ZM80.3191 49.8391C80.1016 49.8394 79.8931 49.9256 79.7393 50.0788C79.5855 50.2321 79.499 50.4399 79.4988 50.6566V88.5987C79.499 88.8154 79.5855 89.0232 79.7393 89.1764C79.8931 89.3297 80.1016 89.4159 80.3191 89.4161H118.395C118.613 89.4159 118.821 89.3297 118.975 89.1764C119.129 89.0232 119.215 88.8154 119.216 88.5987V50.6566C119.215 50.4399 119.129 50.2321 118.975 50.0788C118.821 49.9256 118.613 49.8394 118.395 49.8391H80.3191Z" fill="#282828"/>
<path d="M126.897 119.045H68.5005V119.59H126.897V119.045Z" fill="#282828"/>
<path d="M70.3446 115.642C71.363 115.642 72.1886 114.819 72.1886 113.804C72.1886 112.789 71.363 111.967 70.3446 111.967C69.3261 111.967 68.5005 112.789 68.5005 113.804C68.5005 114.819 69.3261 115.642 70.3446 115.642Z" fill="#1AD05D"/>
<path d="M126.897 137.421H68.5005V137.966H126.897V137.421Z" fill="#282828"/>
<path d="M70.3446 134.018C71.363 134.018 72.1886 133.195 72.1886 132.181C72.1886 131.166 71.363 130.343 70.3446 130.343C69.3261 130.343 68.5005 131.166 68.5005 132.181C68.5005 133.195 69.3261 134.018 70.3446 134.018Z" fill="#1AD05D"/>
<path d="M125.828 158.347H107.373C107.054 158.347 106.749 158.22 106.523 157.996C106.298 157.771 106.171 157.467 106.171 157.149V150.704C106.171 150.387 106.298 150.082 106.523 149.857C106.749 149.633 107.054 149.506 107.373 149.506H125.828C126.147 149.506 126.453 149.633 126.678 149.857C126.903 150.082 127.03 150.387 127.031 150.704V157.149C127.03 157.467 126.903 157.771 126.678 157.996C126.453 158.22 126.147 158.347 125.828 158.347Z" fill="#1AD05D"/>
<path d="M76.3602 115.642C77.3786 115.642 78.2042 114.819 78.2042 113.804C78.2042 112.789 77.3786 111.967 76.3602 111.967C75.3417 111.967 74.5161 112.789 74.5161 113.804C74.5161 114.819 75.3417 115.642 76.3602 115.642Z" fill="#1AD05D"/>
<path d="M82.3758 115.642C83.3943 115.642 84.2199 114.819 84.2199 113.804C84.2199 112.789 83.3943 111.967 82.3758 111.967C81.3574 111.967 80.5317 112.789 80.5317 113.804C80.5317 114.819 81.3574 115.642 82.3758 115.642Z" fill="#1AD05D"/>
<path d="M76.3602 134.018C77.3786 134.018 78.2042 133.195 78.2042 132.181C78.2042 131.166 77.3786 130.343 76.3602 130.343C75.3417 130.343 74.5161 131.166 74.5161 132.181C74.5161 133.195 75.3417 134.018 76.3602 134.018Z" fill="#1AD05D"/>
<path d="M82.3758 134.018C83.3943 134.018 84.2199 133.195 84.2199 132.181C84.2199 131.166 83.3943 130.343 82.3758 130.343C81.3574 130.343 80.5317 131.166 80.5317 132.181C80.5317 133.195 81.3574 134.018 82.3758 134.018Z" fill="#1AD05D"/>
<path d="M198.235 199H0.765046C0.342447 199 0 198.85 0 198.665C0 198.48 0.342447 198.329 0.765046 198.329H198.235C198.657 198.329 199 198.479 199 198.665C199 198.85 198.657 199 198.235 199Z" fill="#E6E6E6"/>
<path d="M172.951 124.737L168.308 133.896L154.427 140.185C152.944 142.682 148.233 142.873 147.891 141.259C147.506 139.448 153.612 136.533 153.612 136.533L165.223 128.707L166.239 121.969L172.951 124.737Z" fill="#FFB9B9"/>
<path d="M172.403 186.204L173.26 193.03L168.293 193.372L167.78 186.204L172.403 186.204Z" fill="#FFB9B9"/>
<path d="M171.719 192.006C172.163 191.538 172.572 191.039 172.944 190.513C173.656 189.531 174.287 194.566 174.287 194.566C174.287 194.566 174.973 196.614 174.801 197.638C174.63 198.662 170.691 198.662 170.006 198.491C169.321 198.321 165.896 198.491 165.896 198.491H160.759C156.306 196.444 160.759 195.078 160.759 195.078C162.129 194.908 166.752 190.641 166.752 190.641L167.78 188.765C168.465 188.594 169.15 191.154 169.15 191.154L171.719 192.006Z" fill="#090814"/>
<path d="M185.248 186.289L186.104 193.115L181.138 193.457L180.624 186.289H185.248Z" fill="#FFB9B9"/>
<path d="M184.562 192.091C185.006 191.624 185.416 191.125 185.788 190.598C186.499 189.617 187.131 194.651 187.131 194.651C187.131 194.651 187.816 196.528 187.645 197.552C187.474 198.576 183.535 198.576 182.85 198.406C182.164 198.236 178.74 198.577 178.74 198.577H173.602C169.149 196.529 173.602 195.164 173.602 195.164C174.972 194.993 179.596 190.727 179.596 190.727L180.623 188.85C181.308 188.679 181.994 191.239 181.994 191.239L184.562 192.091Z" fill="#090814"/>
<path d="M179.595 142.262C180.281 143.116 179.938 146.016 179.938 146.016C179.938 146.016 181.137 155.402 180.623 156.255C180.109 157.109 180.965 157.791 181.479 158.986C181.994 160.181 182.507 163.081 182.507 163.081C185.418 165.47 185.247 176.392 185.247 176.392L186.275 186.119C185.932 187.143 181.137 187.313 180.452 187.143C179.767 186.972 177.712 171.614 177.712 171.614L173.088 162.911C173.088 162.911 173.431 186.119 173.431 187.143C173.431 188.167 168.807 187.655 167.779 187.655C166.752 187.655 166.752 170.59 166.752 170.59L165.724 166.153L160.244 145.846V143.456L161.101 142.262C161.101 142.262 178.91 141.409 179.595 142.262Z" fill="#090814"/>
<path d="M172.061 103.525C174.993 103.525 177.37 101.157 177.37 98.235C177.37 95.3133 174.993 92.9448 172.061 92.9448C169.129 92.9448 166.752 95.3133 166.752 98.235C166.752 101.157 169.129 103.525 172.061 103.525Z" fill="#FFB9B9"/>
<path d="M169.407 100.709C170.483 103.097 169.846 106.432 167.693 110.095L176.427 105.999L175.057 104.805L175.4 101.392L169.407 100.709Z" fill="#FFB9B9"/>
<path d="M169.406 106.17C168.262 106.847 167.578 108.092 167.186 109.359C166.458 111.705 166.021 114.129 165.882 116.58L165.468 123.917L160.33 143.371C164.782 147.126 167.35 146.272 173.345 143.201C179.34 140.129 180.024 144.225 180.024 144.225C180.024 144.225 180.538 144.054 180.024 143.543C179.51 143.031 180.024 143.543 180.538 143.031C181.052 142.519 180.538 143.031 180.366 142.519C180.195 142.007 180.366 142.348 180.538 142.178C180.709 142.007 179.853 140.47 179.853 140.47L181.223 127.671L182.936 109.583C180.882 107.023 175.059 104.804 175.059 104.804L169.749 108.559C168.035 109.241 169.406 106.511 169.406 106.511L169.406 106.17Z" fill="#1AD05D"/>
<path d="M185.761 120.419L186.446 130.658L177.712 143.115C177.712 146.016 176.171 146.699 176.171 146.699C175.587 145.771 175.072 144.801 174.629 143.798C173.773 141.921 175.143 140.385 175.143 140.385L181.137 127.757L178.568 121.443L185.761 120.419Z" fill="#FFB9B9"/>
<path d="M182.851 109.668C185.762 110.692 186.276 121.784 186.276 121.784C182.851 119.907 178.741 122.979 178.741 122.979C178.741 122.979 177.884 120.078 176.857 116.324C176.547 115.268 176.51 114.151 176.749 113.076C176.989 112.002 177.497 111.006 178.227 110.18C178.227 110.18 179.938 108.645 182.851 109.668Z" fill="#1AD05D"/>
<path d="M176.941 99.8558C176.266 99.3171 175.344 100.296 175.344 100.296L174.803 95.4475C174.803 95.4475 171.424 95.8515 169.261 95.3128C167.098 94.7741 166.761 97.2658 166.761 97.2658C166.649 96.2598 166.626 95.2461 166.693 94.2362C166.828 93.0243 168.585 91.8125 171.694 91.0036C174.803 90.1947 176.425 93.6974 176.425 93.6974C178.586 94.7741 177.617 100.395 176.941 99.8558Z" fill="#090814"/>
</svg>
