<svg width="21" height="22" viewBox="0 0 21 22" fill="none" xmlns="http://www.w3.org/2000/svg">
<path d="M20.5001 13.3852V10.7207C20.5001 8.30931 18.5453 6.35449 16.1339 6.35449H15.9622H8.40578C7.46219 6.35449 6.69727 7.11942 6.69727 8.06301C6.69727 9.0066 7.46219 9.77153 8.40578 9.77153H14.439C15.9068 9.77153 17.0966 10.9614 17.0966 12.4292V13.3852C17.0966 14.325 17.8585 15.0869 18.7984 15.0869C19.7382 15.0869 20.5001 14.325 20.5001 13.3852Z" stroke="#515151"/>
<path d="M0.500087 8.63095V11.2842C0.500087 13.6956 2.45491 15.6504 4.8663 15.6504H5.06804H12.8761C13.8197 15.6504 14.5846 14.8855 14.5846 13.9419C14.5846 12.9983 13.8197 12.2334 12.8761 12.2334H6.58374C5.11594 12.2334 3.92605 11.0435 3.92605 9.57566V8.63095C3.92605 7.6849 3.15912 6.91797 2.21307 6.91797C1.26701 6.91797 0.500087 7.6849 0.500087 8.63095Z" stroke="#515151"/>
<path d="M19.0934 3.81935H1.90531C1.12745 3.81935 0.500061 3.18876 0.500061 2.4109C0.500061 1.63303 1.13065 1.00244 1.90852 1.00244H19.0916C19.8695 1.00244 20.5001 1.63303 20.5001 2.4109C20.5001 3.18876 19.8713 3.81935 19.0934 3.81935Z" stroke="#515151"/>
<path d="M19.0934 21.0025H1.90531C1.12745 21.0025 0.500061 20.3719 0.500061 19.594C0.500061 18.8161 1.13065 18.1855 1.90852 18.1855H19.0916C19.8695 18.1855 20.5001 18.8161 20.5001 19.594C20.5001 20.3719 19.8713 21.0025 19.0934 21.0025Z" stroke="#515151"/>
</svg>
